<svg height="512" viewBox="0 0 512 512" width="512" xmlns="http://www.w3.org/2000/svg" xmlns:xlink="http://www.w3.org/1999/xlink"><defs><path id="a" d="m377.432641 118.947789c-13.803479-7.695815-29.614518-12.101851-46.546312-12.101851-29.854465 0-56.518129 13.717998-74.158268 35.297274-17.758113-21.579276-44.423776-35.297274-74.336728-35.297274-16.81382 0-32.624859 4.406036-46.487325 12.101851-29.735991 16.63186-49.8535878 48.589865-49.8535878 85.361816 0 10.500202 1.7126251 20.571997 4.7799537 29.990935 16.5183841 75.164048 165.8976871 169.883815 165.8976871 169.883815s149.200842-94.719767 165.779714-169.883815c3.064329-9.418938 4.778954-19.490733 4.778954-29.990935 0-36.771951-20.118097-68.670469-49.854088-85.361816"/><filter id="b" height="200.9%" width="187.9%" x="-44%" y="-50.4%"><feOffset dx="0" dy="0" in="SourceAlpha" result="shadowOffsetOuter1"/><feGaussianBlur in="shadowOffsetOuter1" result="shadowBlurOuter1" stdDeviation="50"/><feColorMatrix in="shadowBlurOuter1" type="matrix" values="0 0 0 0 0   0 0 0 0 0   0 0 0 0 0  0 0 0 0.744536911 0"/></filter><mask id="c" fill="#fff"><path d="m146.141456 0h219.717088c50.816568 0 69.243883 5.29105984 87.821661 15.2265641 18.577778 9.9355043 33.157727 24.515453 43.093231 43.0932308s15.226564 37.0050933 15.226564 87.8216611v219.717088c0 50.816568-5.29106 69.243883-15.226564 87.821661s-24.515453 33.157727-43.093231 43.093231-37.005093 15.226564-87.821661 15.226564h-219.717088c-50.8165678 0-69.2438833-5.29106-87.8216611-15.226564s-33.1577265-24.515453-43.0932308-43.093231c-9.93550426-18.577778-15.2265641-37.005093-15.2265641-87.821661v-219.717088c0-50.8165678 5.29105984-69.2438833 15.2265641-87.8216611 9.9355043-18.5777778 24.515453-33.1577265 43.0932308-43.0932308 18.5777778-9.93550426 37.0050933-15.2265641 87.8216611-15.2265641z" fill="#fff" fill-rule="evenodd"/></mask></defs><g fill="none" fill-rule="evenodd" mask="url(#c)"><path d="m0 512h512v-512h-512z" fill="#222" fill-rule="evenodd"/><use fill="#000" filter="url(#b)" xlink:href="#a"/><use fill="#db2b30" fill-rule="evenodd" xlink:href="#a"/></g></svg>