<?xml version="1.0" encoding="UTF-8"?>
<svg width="512px" height="512px" viewBox="0 0 512 512" version="1.1" xmlns="http://www.w3.org/2000/svg" xmlns:xlink="http://www.w3.org/1999/xlink">
    <!-- Generator: Sketch 52.6 (67491) - http://www.bohemiancoding.com/sketch -->
    <title>ShareImage</title>
    <desc>Created with Sketch.</desc>
    <defs>
        <path d="M146.141456,-5.90428975e-15 L365.858544,5.90428975e-15 C416.675112,-3.43056238e-15 435.102427,5.29105984 453.680205,15.2265641 C472.257983,25.1620684 486.837932,39.7420171 496.773436,58.3197949 C506.70894,76.8975727 512,95.3248882 512,146.141456 L512,365.858544 C512,416.675112 506.70894,435.102427 496.773436,453.680205 C486.837932,472.257983 472.257983,486.837932 453.680205,496.773436 C435.102427,506.70894 416.675112,512 365.858544,512 L146.141456,512 C95.3248882,512 76.8975727,506.70894 58.3197949,496.773436 C39.7420171,486.837932 25.1620684,472.257983 15.2265641,453.680205 C5.29105984,435.102427 2.28704159e-15,416.675112 -3.93619317e-15,365.858544 L3.93619317e-15,146.141456 C-2.28704159e-15,95.3248882 5.29105984,76.8975727 15.2265641,58.3197949 C25.1620684,39.7420171 39.7420171,25.1620684 58.3197949,15.2265641 C76.8975727,5.29105984 95.3248882,3.43056238e-15 146.141456,-5.90428975e-15 Z" id="path-1"></path>
        <path d="M377.432641,118.947789 C363.629162,111.251974 347.818123,106.845938 330.886329,106.845938 C301.031864,106.845938 274.3682,120.563936 256.728061,142.143212 C238.969948,120.563936 212.304285,106.845938 182.391333,106.845938 C165.577513,106.845938 149.766474,111.251974 135.904008,118.947789 C106.168017,135.579649 86.0504202,167.537654 86.0504202,204.309605 C86.0504202,214.809807 87.7630453,224.881602 90.8303739,234.30054 C107.348758,309.464588 256.728061,404.184355 256.728061,404.184355 C256.728061,404.184355 405.928903,309.464588 422.507775,234.30054 C425.572104,224.881602 427.286729,214.809807 427.286729,204.309605 C427.286729,167.537654 407.168632,135.639136 377.432641,118.947789" id="path-3"></path>
        <filter x="-44.0%" y="-50.4%" width="187.9%" height="200.9%" filterUnits="objectBoundingBox" id="filter-4">
            <feOffset dx="0" dy="0" in="SourceAlpha" result="shadowOffsetOuter1"></feOffset>
            <feGaussianBlur stdDeviation="50" in="shadowOffsetOuter1" result="shadowBlurOuter1"></feGaussianBlur>
            <feColorMatrix values="0 0 0 0 0   0 0 0 0 0   0 0 0 0 0  0 0 0 0.744536911 0" type="matrix" in="shadowBlurOuter1"></feColorMatrix>
        </filter>
    </defs>
    <g id="ShareImage" stroke="none" stroke-width="1" fill="none" fill-rule="evenodd">
        <mask id="mask-2" fill="white">
            <use xlink:href="#path-1"></use>
        </mask>
        <g id="Path"></g>
        <g id="Icon" mask="url(#mask-2)">
            <polygon id="Page-1" fill="#222222" fill-rule="evenodd" points="0 512 512 512 512 0 0 0"></polygon>
            <g id="Fill-2">
                <use fill="black" fill-opacity="1" filter="url(#filter-4)" xlink:href="#path-3"></use>
                <use fill="#DB2B30" fill-rule="evenodd" xlink:href="#path-3"></use>
            </g>
        </g>
    </g>
</svg>