<?xml version="1.0" encoding="UTF-8"?>
<svg width="683px" height="595px" viewBox="0 0 683 595" version="1.1" xmlns="http://www.w3.org/2000/svg" xmlns:xlink="http://www.w3.org/1999/xlink">
    <title>Fill 2</title>
    <g id="Page-1" stroke="none" stroke-width="1" fill="none" fill-rule="evenodd">
        <g id="Artboard" fill="#DB2B30">
            <path d="M582.892,24.209 C555.279,8.814 523.65,0 489.779,0 C430.057,0 376.718,27.442 341.43,70.61 C305.906,27.442 252.563,0 192.724,0 C159.089,0 127.46,8.814 99.729,24.209 C40.244,57.48 0,121.41 0,194.97 C0,215.975 3.426,236.123 9.562,254.965 C42.606,405.326 341.43,594.807 341.43,594.807 C341.43,594.807 639.897,405.326 673.062,254.965 C679.192,236.123 682.622,215.975 682.622,194.97 C682.622,121.41 642.377,57.599 582.892,24.209" id="Fill-2"></path>
        </g>
    </g>
</svg>