<svg height="595" viewBox="0 0 683 595" width="683" xmlns="http://www.w3.org/2000/svg"><path d="m582.892 24.209c-27.613-15.395-59.242-24.209-93.113-24.209-59.722 0-113.061 27.442-148.349 70.61-35.524-43.168-88.867-70.61-148.706-70.61-33.635 0-65.264 8.814-92.995 24.209-59.485 33.271-99.729 97.201-99.729 170.761 0 21.005 3.426 41.153 9.562 59.995 33.044 150.361 331.868 339.842 331.868 339.842s298.467-189.481 331.632-339.842c6.13-18.842 9.56-38.99 9.56-59.995 0-73.56-40.245-137.371-99.73-170.761" fill="#db2b30" fill-rule="evenodd"/></svg>