<?xml version="1.0" standalone="no"?>
<!DOCTYPE svg PUBLIC "-//W3C//DTD SVG 20010904//EN"
 "http://www.w3.org/TR/2001/REC-SVG-20010904/DTD/svg10.dtd">
<svg version="1.0" xmlns="http://www.w3.org/2000/svg"
 width="683.000000pt" height="683.000000pt" viewBox="0 0 683.000000 683.000000"
 preserveAspectRatio="xMidYMid meet">
<metadata>
Created by potrace 1.11, written by Peter Selinger 2001-2013
</metadata>
<g transform="translate(0.000000,683.000000) scale(0.100000,-0.100000)"
fill="#000000" stroke="none">
<path d="M1769 6366 c-2 -2 -34 -7 -71 -10 -265 -27 -579 -143 -824 -304 -453
-298 -754 -768 -851 -1327 -18 -100 -25 -449 -12 -522 5 -24 11 -65 14 -91 4
-26 9 -55 11 -64 3 -10 7 -30 10 -44 3 -15 21 -83 40 -153 20 -69 39 -139 43
-156 14 -52 82 -217 132 -317 132 -264 378 -605 658 -913 145 -159 581 -582
726 -706 22 -19 42 -36 45 -39 28 -31 466 -392 569 -470 18 -14 38 -29 44 -35
7 -5 39 -30 72 -55 33 -25 66 -51 75 -57 8 -7 67 -51 130 -97 63 -47 120 -89
125 -93 28 -23 355 -253 465 -328 45 -30 93 -64 108 -74 15 -10 52 -34 82 -53
l54 -35 70 46 c145 95 431 290 449 306 7 6 82 61 167 123 193 139 610 458 630
482 3 3 25 21 50 40 25 19 47 37 50 40 3 3 59 50 125 105 568 472 1082 1004
1371 1420 216 310 327 543 418 875 83 307 101 544 61 845 -17 134 -77 350
-127 465 -165 371 -359 615 -678 851 -188 138 -543 289 -745 315 -22 3 -46 7
-53 10 -58 19 -408 26 -532 11 -199 -24 -411 -87 -596 -176 -110 -53 -296
-165 -334 -202 -8 -8 -33 -27 -55 -43 -22 -17 -93 -84 -158 -149 l-118 -120
-37 44 c-120 141 -308 297 -472 393 -229 133 -442 207 -727 252 -43 6 -398 15
-404 10z"/>
</g>
</svg>
